<?xml version="1.0" encoding="utf-8"?>
<!-- Generator: Adobe Illustrator 28.2.0, SVG Export Plug-In . SVG Version: 6.00 Build 0)  -->
<svg version="1.1" id="Calque_2_00000128482656834661919400000007104037939812795326_"
	 xmlns="http://www.w3.org/2000/svg" xmlns:xlink="http://www.w3.org/1999/xlink" x="0px" y="0px" viewBox="0 0 126 119.2"
	 style="enable-background:new 0 0 126 119.2;" xml:space="preserve">
<g id="Calque_1-2">
	<g>
		<path d="M0,77.7c1.1,0,4.5-1.5,4.5-6.5V31.6c0-4.9-3.5-6.5-4.5-6.5v-1.2h21.9c11.1,0,18.8,6.9,18.8,15.3c0,7.1-5.2,13-13.5,14.8
			c5.2,1.3,9.1,12.7,11.5,17.2c1.1,2,3,6.5,6.3,6.5V79H29.3v-1.2c0.9,0,2.5-1.5,2.5-3.9c0-0.8-0.1-1.6-0.5-2.5
			c-1.8-4.2-5.5-14-10.5-16.6H10.6v16.6c0,4.9,3.5,6.5,4.5,6.5V79H0V77.7L0,77.7z M10.6,25.2v28.2h8.8c9.8,0,15.4-6.3,15.4-14.2
			s-5.6-14.1-15.4-14.1C19.4,25.2,10.6,25.2,10.6,25.2z"/>
		<path d="M66.6,44.3c9.3,0,16.9,7.8,16.9,17.3s-7.6,17.3-16.9,17.3s-17-7.8-17-17.3S57.2,44.3,66.6,44.3z M66.6,45.6
			c-6.3,0-11.4,7.4-11.4,16.2s5.1,16,11.4,16s11.4-7.2,11.4-16S72.8,45.6,66.6,45.6z"/>
		<path d="M126,44.3v1.2c-3.2,0-5.7,6.5-5.7,6.5l-15.7,35.2c0,0-5.5,13.1-10.9,13.1c-2.6,0-3.8-1.5-3.8-2.9s1.3-3,3.8-3
			c6.9,0,9.7-7.2,9.7-7.2l3.7-8.3l-12-26.9c0,0-2.4-6.5-5.7-6.5v-1.2h14.7v1.2c-0.8,0-3.2,1.8-3.2,4.5c0,0.6,0.1,1.3,0.4,2L110,72
			l10-22.3c0.4-0.9,0.5-1.7,0.5-2.2c0-1.6-1.4-1.8-2.2-1.8v-1.2L126,44.3L126,44.3z"/>
	</g>
	<g>
		<g>
			<line x1="48.8" y1="18.2" x2="55.2" y2="25.9"/>
			<path d="M48.8,18.2c0.5,0.1,0.9,0.4,1.3,0.6l0.8,1l1.6,1.9l1.6,1.9l0.8,1c0.1,0.5,0.2,0.9,0.3,1.4c-0.5-0.2-0.9-0.4-1.3-0.6
				l-0.8-1l-1.6-1.9l-1.6-1.9l-0.8-1C49,19.1,48.9,18.7,48.8,18.2C48.8,18.2,48.9,18.7,48.8,18.2L48.8,18.2z"/>
		</g>
		<g>
			<line x1="58.5" y1="12.1" x2="62.9" y2="25.9"/>
			<path d="M58.5,12.1c0.4,0.5,0.8,1,1.2,1.5l0.5,1.7l1.1,3.5l1.1,3.5l0.5,1.7c0,0.6,0,1.3-0.1,1.9c-0.4-0.5-0.8-1-1.2-1.5l-0.5-1.7
				l-1.1-3.5L59,15.8L58.4,14C58.4,13.4,58.4,12.8,58.5,12.1C58.5,12.1,58.4,12.8,58.5,12.1L58.5,12.1z"/>
		</g>
		<g>
			<line x1="89.9" y1="18.2" x2="83.5" y2="25.9"/>
			<path d="M89.9,18.2c-0.1,0.5-0.2,0.9-0.3,1.4l-0.8,1l-1.6,1.9l-1.6,1.9l-0.8,1c-0.4,0.2-0.8,0.4-1.3,0.6c0.1-0.5,0.2-0.9,0.3-1.4
				l0.8-1l1.6-1.9l1.6-1.9l0.8-1C89,18.5,89.4,18.3,89.9,18.2C89.9,18.2,89.4,18.3,89.9,18.2L89.9,18.2z"/>
		</g>
		<g>
			<line x1="80.2" y1="12.1" x2="75.8" y2="25.9"/>
			<path d="M80.2,12.1c0.1,0.7,0.1,1.3,0.1,1.9l-0.6,1.7l-1.1,3.5l-1.1,3.5L77,24.4c-0.4,0.5-0.7,1-1.2,1.5
				c-0.1-0.6-0.1-1.3-0.1-1.9l0.6-1.7l1.1-3.5l1.1-3.4l0.5-1.7C79.4,13.1,79.8,12.6,80.2,12.1C80.2,12.1,79.8,12.6,80.2,12.1
				L80.2,12.1z"/>
		</g>
		<g>
			<line x1="69.2" y1="0" x2="69.5" y2="25.9"/>
			<path d="M69.2,0c0.3,1.1,0.5,2.2,0.7,3.2l0,3.2L70,13l0.1,6.5l0,3.2c-0.2,1.1-0.3,2.2-0.6,3.2c-0.3-1.1-0.4-2.1-0.7-3.2l0-3.2
				L68.7,13l-0.1-6.5l-0.1-3.2C68.8,2.2,68.9,1.1,69.2,0C69.2,0,68.9,1.1,69.2,0z"/>
		</g>
	</g>
	<g>
		<path d="M32.5,119.1v-7.8h0.7v7.2h4.1v0.6H32.5z"/>
		<path d="M42.7,119.2c-1,0-1.8-0.3-2.3-0.8s-0.8-1.3-0.8-2.3v-4.7h0.7v4.7c0,1.7,0.8,2.6,2.4,2.6s2.4-0.8,2.4-2.6v-4.7h0.7v4.7
			c0,1-0.3,1.8-0.8,2.3S43.7,119.2,42.7,119.2z"/>
		<path d="M49.4,119.1v-7.8h0.5l4.9,6.6v-6.6h0.6v7.8H55l-4.9-6.6v6.6H49.4z"/>
		<path d="M59.2,119.1v-7.8H64v0.6h-4.1v3h3.9v0.6h-3.9v3.1H64v0.6L59.2,119.1L59.2,119.1z"/>
		<path d="M68.9,119.1V112H66v-0.6h6.5v0.6h-2.9v7.2H68.9L68.9,119.1z"/>
		<path d="M75.2,119.1v-7.8h0.7v7.8H75.2z"/>
		<path d="M79.6,119.1v-7.8h4.8v0.6h-4.1v3h3.9v0.6h-3.9v3.1h4.1v0.6L79.6,119.1L79.6,119.1z"/>
		<path d="M87.6,119.1v-7.8h2.9c0.8,0,1.5,0.2,1.9,0.6s0.7,0.9,0.7,1.6c0,0.6-0.2,1.1-0.5,1.4c-0.3,0.4-0.8,0.6-1.3,0.7
			c0.3,0.1,0.6,0.4,0.8,0.9l1.4,2.6h-0.7l-1.3-2.5c-0.2-0.3-0.4-0.6-0.6-0.7s-0.6-0.2-0.9-0.2h-1.6v3.4L87.6,119.1L87.6,119.1z
			 M88.2,115.2h2.2c1.3,0,2-0.5,2-1.6s-0.7-1.6-2-1.6h-2.2V115.2L88.2,115.2z"/>
	</g>
</g>
</svg>
